<svg width="23" height="23" viewBox="0 0 23 23" fill="none" xmlns="http://www.w3.org/2000/svg">
<path d="M22.2761 21.0222L18.6661 17.4122C20.4279 15.327 21.3157 12.6416 21.1441 9.91721C20.9725 7.19277 19.7547 4.64004 17.7452 2.79239C15.7356 0.944729 13.0899 -0.0549112 10.3606 0.00232926C7.63138 0.0595697 5.02984 1.16926 3.09955 3.09955C1.16926 5.02984 0.0595697 7.63138 0.00232926 10.3606C-0.0549112 13.0899 0.944729 15.7356 2.79239 17.7452C4.64004 19.7547 7.19277 20.9725 9.91721 21.1441C12.6416 21.3157 15.327 20.4279 17.4122 18.6661L21.0222 22.2761C21.1895 22.4376 21.4134 22.527 21.646 22.525C21.8785 22.5229 22.1009 22.4297 22.2653 22.2653C22.4297 22.1009 22.5229 21.8785 22.525 21.646C22.527 21.4134 22.4376 21.1895 22.2761 21.0222ZM10.6046 19.3915C8.86676 19.3915 7.16792 18.8761 5.72293 17.9106C4.27794 16.9451 3.15171 15.5728 2.48665 13.9672C1.8216 12.3616 1.64759 10.5949 1.98663 8.89041C2.32568 7.18593 3.16254 5.62026 4.3914 4.3914C5.62026 3.16254 7.18593 2.32568 8.89041 1.98663C10.5949 1.64759 12.3616 1.8216 13.9672 2.48665C15.5728 3.15171 16.9451 4.27794 17.9106 5.72293C18.8761 7.16792 19.3915 8.86676 19.3915 10.6046C19.3889 12.9343 18.4623 15.1677 16.815 16.815C15.1677 18.4623 12.9343 19.3889 10.6046 19.3915Z" fill="white"/>
</svg>
